<svg width="17" height="17" viewBox="0 0 17 17" fill="none" xmlns="http://www.w3.org/2000/svg">
<path fill-rule="evenodd" clip-rule="evenodd" d="M13.129 11.334C13.5901 11.3332 14.0368 11.1725 14.3927 10.8793C14.7487 10.5861 14.9919 10.1785 15.081 9.72601L16.081 4.72601C16.1389 4.43622 16.1319 4.13716 16.0604 3.8504C15.989 3.56364 15.8548 3.2963 15.6677 3.06757C15.4806 2.83883 15.2451 2.65437 14.9782 2.52753C14.7112 2.40069 14.4195 2.33461 14.124 2.33398H4.16799V1.33398C4.16799 1.06877 4.06262 0.814428 3.87508 0.626892C3.68754 0.439356 3.4332 0.333984 3.16799 0.333984H1.17699C0.911773 0.333984 0.657403 0.439356 0.469866 0.626892C0.28233 0.814428 0.176989 1.06877 0.176989 1.33398C0.176989 1.5992 0.28233 1.85354 0.469866 2.04108C0.657403 2.22861 0.911773 2.33398 1.17699 2.33398H2.17699V12.334C1.78105 12.3322 1.39348 12.448 1.0634 12.6667C0.733323 12.8854 0.475558 13.1971 0.322802 13.5624C0.170046 13.9277 0.129158 14.3301 0.205309 14.7186C0.28146 15.1072 0.471224 15.4644 0.750567 15.745C1.02991 16.0256 1.38626 16.217 1.77446 16.2949C2.16267 16.3728 2.56528 16.3337 2.93126 16.1826C3.29724 16.0315 3.61012 15.7751 3.83028 15.446C4.05044 15.117 4.16798 14.7299 4.16799 14.334H11.137C11.1386 14.7276 11.2567 15.1119 11.4766 15.4385C11.6964 15.765 12.0081 16.0191 12.3722 16.1686C12.7363 16.3182 13.1366 16.3565 13.5225 16.2787C13.9084 16.201 14.2625 16.0106 14.5403 15.7317C14.8181 15.4528 15.0071 15.0979 15.0833 14.7117C15.1595 14.3255 15.1196 13.9254 14.9686 13.5618C14.8176 13.1983 14.5623 12.8877 14.2349 12.6691C13.9074 12.4506 13.5226 12.334 13.129 12.334H4.16799V11.334H13.129ZM14.129 4.33398L13.129 9.33398H4.16799V4.33398H14.124H14.129Z" fill="#33A0FF"/>
</svg>
