<svg width="9" height="17" viewBox="0 0 9 17" fill="none" xmlns="http://www.w3.org/2000/svg">
<path d="M0.833544 8.89254H2.59557V16.153C2.59557 16.2218 2.62289 16.2878 2.67152 16.3364C2.72015 16.3851 2.7861 16.4124 2.85488 16.4124H5.8433C5.91208 16.4124 5.97803 16.3851 6.02666 16.3364C6.07529 16.2878 6.10261 16.2218 6.10261 16.153V8.92657H8.12926C8.19281 8.92647 8.25411 8.90302 8.30152 8.86068C8.34893 8.81834 8.37916 8.76005 8.38645 8.69689L8.69464 6.02367C8.69883 5.98736 8.69531 5.95058 8.68431 5.91573C8.6733 5.88088 8.65506 5.84875 8.63078 5.82144C8.60649 5.79413 8.57672 5.77227 8.5434 5.75728C8.51009 5.74228 8.47398 5.7345 8.43745 5.73445H6.09942V4.0597C6.09942 3.55462 6.37149 3.29836 6.90711 3.29836H8.4332C8.50197 3.29836 8.56792 3.27102 8.61655 3.22236C8.66518 3.17371 8.69251 3.10771 8.69251 3.0389V0.585798C8.69308 0.51735 8.6666 0.45145 8.61882 0.402455C8.57105 0.353459 8.50585 0.325339 8.43745 0.324219L6.33217 0.324219H6.23546C5.266 0.327642 4.33028 0.680623 3.59986 1.31843C3.2552 1.6198 2.99075 2.00212 2.83029 2.43104C2.66984 2.85997 2.6184 3.32205 2.68059 3.77579V5.73551H0.830349C0.761576 5.73551 0.695623 5.76284 0.646993 5.8115C0.598363 5.86016 0.571045 5.92615 0.571045 5.99496V8.63309C0.571042 8.66743 0.57785 8.70143 0.59108 8.73312C0.60431 8.7648 0.623702 8.79355 0.64812 8.81768C0.672538 8.84182 0.701498 8.86086 0.733328 8.87371C0.765158 8.88656 0.799223 8.89296 0.833544 8.89254Z" fill="white"/>
</svg>
