<svg width="39" height="26" viewBox="0 0 39 26" fill="none" xmlns="http://www.w3.org/2000/svg">
<path d="M1.74839 0.791748H36.7304C36.9537 0.796169 37.1738 0.844784 37.3784 0.934326C37.583 1.02387 37.7679 1.15269 37.9226 1.31372C38.0773 1.47475 38.1988 1.66482 38.2801 1.8728C38.3614 2.08078 38.4009 2.30286 38.3963 2.52612V24.2019C38.4052 24.6526 38.2346 25.0883 37.9222 25.4133C37.6098 25.7383 37.1812 25.9259 36.7304 25.9348H1.74839C1.29767 25.9259 0.868925 25.7383 0.556499 25.4133C0.244073 25.0883 0.0735383 24.6526 0.0823778 24.2019V2.52612C0.0778679 2.30286 0.117419 2.08078 0.198711 1.8728C0.280002 1.66482 0.401422 1.47475 0.556133 1.31372C0.710844 1.15269 0.895757 1.02387 1.10032 0.934326C1.30489 0.844784 1.52513 0.796169 1.74839 0.791748Z" fill="#353A40"/>
</svg>
