<svg width="15" height="12" viewBox="0 0 15 12" fill="none" xmlns="http://www.w3.org/2000/svg">
<path d="M14.6877 1.43275C14.1374 1.67287 13.5555 1.83251 12.9597 1.90675C13.5878 1.53428 14.0575 0.944353 14.2797 0.248748C13.6923 0.597116 13.0497 0.842645 12.3797 0.97475C11.9685 0.534708 11.4344 0.228605 10.8469 0.0962708C10.2594 -0.0360632 9.6456 0.0114971 9.08548 0.232764C8.52535 0.454032 8.04479 0.838761 7.70631 1.33689C7.36784 1.83503 7.18713 2.4235 7.18769 3.02575C7.18549 3.25564 7.20897 3.48506 7.25769 3.70975C6.06431 3.65116 4.89673 3.34137 3.83128 2.80063C2.76583 2.25989 1.8265 1.50038 1.07469 0.57175C0.688584 1.23165 0.568999 2.01406 0.740359 2.75916C0.911719 3.50426 1.36109 4.15582 1.99669 4.58075C1.52197 4.56815 1.05724 4.44159 0.641688 4.21175V4.24475C0.64233 4.93702 0.881261 5.60797 1.31832 6.14482C1.75538 6.68168 2.36393 7.05172 3.04169 7.19275C2.78495 7.26084 2.5203 7.29447 2.25469 7.29275C2.06407 7.29621 1.87364 7.27911 1.68669 7.24175C1.88029 7.83671 2.25344 8.35709 2.75483 8.73134C3.25622 9.10559 3.86124 9.31534 4.48669 9.33175C3.42608 10.1604 2.11865 10.6103 0.772687 10.6097C0.532724 10.6114 0.2929 10.5977 0.0546875 10.5687C1.42585 11.4522 3.02354 11.9197 4.65469 11.9147C5.77793 11.9226 6.89154 11.7072 7.93083 11.281C8.97012 10.8548 9.91437 10.2264 10.7087 9.43222C11.5031 8.63803 12.1318 7.69393 12.5582 6.65474C12.9846 5.61555 13.2003 4.502 13.1927 3.37875C13.1927 3.24575 13.1927 3.11775 13.1817 2.99075C13.7743 2.56739 14.2847 2.0394 14.6877 1.43275Z" fill="#03A9F4"/>
</svg>
