<svg width="8" height="16" viewBox="0 0 8 16" fill="none" xmlns="http://www.w3.org/2000/svg">
<path d="M0.370049 8.08388H2.02805V14.9119C2.02805 14.9766 2.05376 15.0387 2.09952 15.0844C2.14528 15.1302 2.20734 15.1559 2.27205 15.1559H5.08405C5.14876 15.1559 5.21082 15.1302 5.25658 15.0844C5.30234 15.0387 5.32805 14.9766 5.32805 14.9119V8.11588H7.23505C7.29484 8.11578 7.35253 8.09373 7.39714 8.05392C7.44175 8.0141 7.47019 7.95928 7.47705 7.89988L7.76704 5.38588C7.77099 5.35173 7.76768 5.31714 7.75732 5.28436C7.74697 5.25159 7.7298 5.22137 7.70695 5.19569C7.68411 5.17001 7.65609 5.14945 7.62474 5.13535C7.59339 5.12125 7.55941 5.11393 7.52504 5.11388H5.32504V3.53888C5.32504 3.06388 5.58105 2.82288 6.08505 2.82288H7.52104C7.58575 2.82288 7.64781 2.79717 7.69357 2.75141C7.73933 2.70565 7.76505 2.64359 7.76505 2.57888V0.271879C7.76558 0.207508 7.74066 0.145533 7.69571 0.0994552C7.65076 0.0533779 7.5894 0.026932 7.52504 0.0258789L5.54405 0.0258789H5.45305C4.54083 0.029098 3.66034 0.361056 2.97305 0.960879C2.64874 1.2443 2.3999 1.60385 2.24892 2.00722C2.09793 2.4106 2.04953 2.84517 2.10805 3.27188V5.11488H0.367043C0.30233 5.11488 0.24027 5.14059 0.194511 5.18634C0.148753 5.2321 0.123047 5.29417 0.123047 5.35888V7.83988C0.123044 7.87218 0.12945 7.90415 0.141899 7.93395C0.154348 7.96375 0.172596 7.99079 0.195572 8.01348C0.218548 8.03618 0.245799 8.05409 0.275749 8.06617C0.3057 8.07826 0.337754 8.08428 0.370049 8.08388Z" fill="#385C8E"/>
</svg>
