<svg width="70" height="79" viewBox="0 0 70 79" fill="none" xmlns="http://www.w3.org/2000/svg">
<path d="M56.2838 16.8024L52.5122 21.6464C57.8582 25.7903 61.5425 31.7126 62.8968 38.3397C64.2512 44.9668 63.186 51.8598 59.8944 57.7689C56.6028 63.678 51.3028 68.212 44.9553 70.5489C38.6077 72.8857 31.6329 72.8707 25.2955 70.5064C18.9581 68.1422 13.6777 63.5854 10.4116 57.6621C7.14561 51.7388 6.11019 44.8413 7.49314 38.2201C8.87608 31.599 12.5858 25.6926 17.9497 21.5718C23.3137 17.4511 29.9766 15.3888 36.7305 15.7589L31.4239 21.3258L35.3602 25.0823L43.7369 16.2819L47.4896 12.3406L43.5596 8.59918L34.7655 0.221191L31.0102 4.16252L36.7381 9.61877C27.9526 9.21871 19.3476 12.1989 12.6913 17.9468C6.03505 23.6947 1.83319 31.7739 0.949201 40.5239C0.0652155 49.2739 2.56625 58.0302 7.93835 64.9934C13.3105 71.9565 21.1455 76.5975 29.8335 77.9628C31.6262 78.2461 33.4383 78.3886 35.2533 78.3889C42.4184 78.3711 49.3993 76.1172 55.2221 71.9417C61.0448 67.7662 65.419 61.8773 67.7345 55.0966C70.05 48.3159 70.1912 40.9815 68.1385 34.1167C66.0858 27.2519 61.9415 21.199 56.2838 16.8024Z" fill="#FF6875"/>
<path d="M38.5503 61.5259V57.9932C42.7393 57.5255 46.8139 54.8804 46.8139 49.8566C46.8139 43.0312 40.4675 42.2493 35.8322 41.6785C32.869 41.324 30.5998 40.9129 30.5998 39.1176C30.5998 36.6208 34.1199 36.3517 35.6286 36.3517C37.8739 36.3517 40.2702 37.4078 41.0848 38.7542L41.3212 39.1465L45.9728 36.9916L45.7427 36.5227C45.0524 35.1577 44.0322 33.9866 42.7747 33.1157C41.5171 32.2448 40.0621 31.7016 38.5415 31.5354V28.4238H33.0978V31.5203C28.0225 32.2746 25.0077 35.0857 25.0077 39.1163C25.0077 45.6877 30.9744 46.354 35.3281 46.8431C39.2078 47.3007 41.0132 48.2587 41.0132 49.8604C41.0132 52.9116 36.7877 53.1492 35.4928 53.1492C32.61 53.1492 29.8354 51.711 29.0257 49.8L28.8258 49.3286L23.7744 51.4696L23.9756 51.941C25.4729 55.4474 28.7052 57.6437 33.1041 58.1629V61.5259H38.5503Z" fill="#FF6875"/>
</svg>
