<svg width="39" height="26" viewBox="0 0 39 26" fill="none" xmlns="http://www.w3.org/2000/svg">
<path d="M1.85142 0.593994H36.8514C37.0748 0.598285 37.2951 0.646599 37.4997 0.736084C37.7044 0.825569 37.8895 0.95444 38.0443 1.11548C38.1991 1.27652 38.3206 1.46651 38.402 1.67456C38.4833 1.88261 38.5229 2.10454 38.5184 2.32788V24.0022C38.5229 24.2255 38.4833 24.4475 38.402 24.6555C38.3206 24.8636 38.1991 25.0536 38.0443 25.2146C37.8895 25.3756 37.7044 25.5045 37.4997 25.594C37.2951 25.6835 37.0748 25.7318 36.8514 25.7361H1.85142C1.62808 25.7318 1.40779 25.6835 1.20311 25.594C0.998425 25.5045 0.813367 25.3756 0.65855 25.2146C0.503733 25.0536 0.382116 24.8636 0.300762 24.6555C0.219408 24.4475 0.17992 24.2255 0.184429 24.0022V2.32788C0.17992 2.10454 0.219408 1.88261 0.300762 1.67456C0.382116 1.46651 0.503733 1.27652 0.65855 1.11548C0.813367 0.95444 0.998425 0.825569 1.20311 0.736084C1.40779 0.646599 1.62808 0.598285 1.85142 0.593994Z" fill="url(#paint0_linear)"/>
<defs>
<linearGradient id="paint0_linear" x1="19.3514" y1="25.7361" x2="19.3514" y2="0.593994" gradientUnits="userSpaceOnUse">
<stop stop-color="#E59703"/>
<stop offset="0.231" stop-color="#E59703"/>
<stop offset="0.234" stop-color="white"/>
<stop offset="0.761" stop-color="white"/>
<stop offset="0.766" stop-color="#5457BB"/>
<stop offset="1" stop-color="#5457BB"/>
</linearGradient>
</defs>
</svg>
