<svg width="69" height="90" viewBox="0 0 69 90" fill="none" xmlns="http://www.w3.org/2000/svg">
<path d="M0.723145 70.4942V89.0593H68.3908V70.4942C68.3881 68.4244 67.5647 66.4402 66.1011 64.9766C64.6376 63.5131 62.6533 62.6897 60.5835 62.687H8.53037C6.46058 62.6897 4.47633 63.5131 3.01277 64.9766C1.5492 66.4402 0.725806 68.4244 0.723145 70.4942H0.723145ZM5.92796 70.4942C5.92896 69.8043 6.20346 69.143 6.69129 68.6551C7.17912 68.1673 7.84047 67.8928 8.53037 67.8918H11.1328V83.8583H5.92796V70.4942ZM16.3388 67.8918H23.0686L34.5569 79.3801L46.0453 67.8918H52.7713V83.8583H16.3388V67.8918ZM63.1859 70.4942V83.8545H57.9811V67.888H60.5835C61.2741 67.889 61.936 68.1641 62.4239 68.6527C62.9119 69.1414 63.1859 69.8037 63.1859 70.4942ZM38.6843 67.8918L34.5569 72.0192L30.4296 67.8918H38.6843Z" fill="#FF6875"/>
<path d="M54.0285 52.2725H57.9849V47.0676H60.5873C62.6571 47.065 64.6413 46.2416 66.1049 44.778C67.5685 43.3145 68.3919 41.3302 68.3945 39.2604V34.0556C68.3942 25.0818 64.8291 16.4757 58.4834 10.1305C52.1377 3.78536 43.5314 0.220858 34.5576 0.221191C25.5838 0.221525 16.9777 3.78667 10.6325 10.1323C4.28731 16.478 0.722811 25.0844 0.723145 34.0581L0.723145 39.263C0.725806 41.3327 1.5492 43.317 3.01277 44.7805C4.47633 46.2441 6.46058 47.0675 8.53037 47.0702H12.4729C13.9204 51.1694 16.4803 54.7847 19.8662 57.5113C23.2521 60.2378 27.3301 61.968 31.6437 62.508C35.9573 63.048 40.336 62.3766 44.2895 60.5688C48.243 58.761 51.6152 55.8883 54.0285 52.2725ZM60.5873 41.8616H57.834C57.9309 40.9975 57.9796 40.1287 57.9799 39.2592V34.0544C57.9796 33.1849 57.9309 32.316 57.834 31.452H60.5823C61.2722 31.453 61.9335 31.7275 62.4214 32.2153C62.9092 32.7031 63.1837 33.3645 63.1847 34.0544V39.2592C63.185 39.9499 62.9111 40.6126 62.4231 41.1015C61.9352 41.5904 61.273 41.8656 60.5823 41.8666L60.5873 41.8616ZM34.5569 5.42915C40.8147 5.4372 46.898 7.49175 51.8792 11.2795C56.8604 15.0672 60.466 20.3801 62.1462 26.4081C61.6319 26.3033 61.1084 26.2507 60.5835 26.2509H56.6397C55.0251 21.6842 52.0345 17.7303 48.0796 14.9338C44.1247 12.1372 39.4001 10.6355 34.5563 10.6355C29.7126 10.6355 24.988 12.1372 21.0331 14.9338C17.0782 17.7303 14.0875 21.6842 12.4729 26.2509H8.53037C8.00551 26.2507 7.48196 26.3033 6.96766 26.4081C8.64785 20.3801 12.2535 15.0672 17.2347 11.2795C22.2159 7.49175 28.2992 5.4372 34.5569 5.42915ZM49.5026 23.6535C47.8198 26.0574 45.5834 28.0212 42.9822 29.3792C40.381 30.7371 37.4913 31.4493 34.5569 31.4557H16.5249C17.046 27.8372 18.644 24.4593 21.1111 21.7614C23.5782 19.0635 26.8002 17.1705 30.3578 16.3288C33.9155 15.4871 37.6441 15.7356 41.0585 17.042C44.473 18.3484 47.4153 20.6521 49.5026 23.6535ZM8.53037 41.8666C7.84047 41.8656 7.17912 41.5911 6.69129 41.1033C6.20346 40.6155 5.92896 39.9541 5.92796 39.2642V34.0594C5.92896 33.3695 6.20346 32.7081 6.69129 32.2203C7.17912 31.7325 7.84047 31.458 8.53037 31.457H11.2836C11.1867 32.3211 11.138 33.1899 11.1378 34.0594V39.2642C11.138 40.1337 11.1867 41.0025 11.2836 41.8666H8.53037ZM16.3376 39.2642V36.6618H34.5569C37.8524 36.6557 41.1098 35.9568 44.1177 34.6105C47.1256 33.2642 49.8169 31.3006 52.017 28.847C52.5227 30.5378 52.779 32.2933 52.7776 34.0581V39.263C52.7804 41.964 52.179 44.6316 51.0175 47.0702H42.3642L40.0735 44.7846C38.6092 46.2487 36.6233 47.0712 34.5526 47.0712C32.4818 47.0712 30.4959 46.2487 29.0315 44.7846L25.3517 48.4644C27.5666 50.6792 30.506 52.0208 33.6304 52.243C36.7547 52.4652 39.8544 51.553 42.3604 49.6738V52.2725H47.2886C44.7273 54.7815 41.4823 56.4785 37.9604 57.1507C34.4385 57.8229 30.7966 57.4403 27.4913 56.0509C24.1859 54.6616 21.3644 52.3273 19.3804 49.3407C17.3964 46.3542 16.3383 42.8484 16.3388 39.263L16.3376 39.2642Z" fill="#FF6875"/>
</svg>
