<svg width="69" height="89" viewBox="0 0 69 89" fill="none" xmlns="http://www.w3.org/2000/svg">
<path d="M0.514648 70.4012V88.9663H68.1823V70.4012C68.1796 68.3314 67.3562 66.3472 65.8926 64.8836C64.4291 63.42 62.4448 62.5967 60.375 62.594H8.32187C6.25208 62.5967 4.26783 63.42 2.80427 64.8836C1.34071 66.3472 0.51731 68.3314 0.514648 70.4012H0.514648ZM5.71946 70.4012C5.72046 69.7113 5.99496 69.05 6.48279 68.5621C6.97062 68.0743 7.63197 67.7998 8.32187 67.7988H10.9243V83.7653H5.71946V70.4012ZM16.1303 67.7988H22.8601L34.3485 79.2871L45.8368 67.7988H52.5628V83.7653H16.1303V67.7988ZM62.9774 70.4012V83.7615H57.7726V67.795H60.375C61.0656 67.796 61.7275 68.0711 62.2154 68.5597C62.7034 69.0484 62.9774 69.7107 62.9774 70.4012ZM38.4758 67.7988L34.3485 71.9262L30.2211 67.7988H38.4758Z" fill="#FF6875"/>
<path d="M53.82 52.1792H57.7764V46.9744H60.3788C62.4486 46.9717 64.4328 46.1483 65.8964 44.6848C67.36 43.2212 68.1834 41.237 68.186 39.1672V33.9624C68.1857 24.9886 64.6206 16.3825 58.2749 10.0373C51.9292 3.6921 43.3229 0.127596 34.3491 0.12793C25.3753 0.128263 16.7692 3.6934 10.424 10.0391C4.07882 16.3847 0.514315 24.9911 0.514648 33.9649L0.514648 39.1697C0.51731 41.2395 1.34071 43.2237 2.80427 44.6873C4.26783 46.1508 6.25208 46.9742 8.32187 46.9769H12.2645C13.7119 51.0761 16.2718 54.6914 19.6577 57.418C23.0436 60.1446 27.1217 61.8748 31.4352 62.4148C35.7488 62.9548 40.1275 62.2833 44.081 60.4755C48.0345 58.6678 51.4067 55.7951 53.82 52.1792ZM60.3788 41.7683H57.6255C57.7224 40.9042 57.7711 40.0354 57.7714 39.1659V33.9611C57.7711 33.0916 57.7224 32.2228 57.6255 31.3587H60.3738C61.0637 31.3597 61.725 31.6342 62.2129 32.122C62.7007 32.6099 62.9752 33.2712 62.9762 33.9611V39.1659C62.9765 39.8567 62.7026 40.5193 62.2146 41.0082C61.7267 41.4972 61.0645 41.7724 60.3738 41.7733L60.3788 41.7683ZM34.3485 5.33589C40.6062 5.34394 46.6895 7.39849 51.6707 11.1862C56.6519 14.9739 60.2575 20.2869 61.9377 26.3148C61.4234 26.2101 60.8999 26.1574 60.375 26.1577H56.4312C54.8166 21.5909 51.826 17.637 47.8711 14.8405C43.9162 12.044 39.1916 10.5423 34.3478 10.5423C29.5041 10.5423 24.7795 12.044 20.8246 14.8405C16.8697 17.637 13.879 21.5909 12.2645 26.1577H8.32187C7.79701 26.1574 7.27347 26.2101 6.75917 26.3148C8.43935 20.2869 12.045 14.9739 17.0262 11.1862C22.0074 7.39849 28.0907 5.34394 34.3485 5.33589ZM49.2941 23.5603C47.6113 25.9642 45.375 27.928 42.7737 29.2859C40.1725 30.6438 37.2828 31.3561 34.3485 31.3625H16.3164C16.8375 27.7439 18.4355 24.366 20.9026 21.6681C23.3697 18.9702 26.5917 17.0773 30.1493 16.2356C33.707 15.3939 37.4356 15.6424 40.85 16.9487C44.2645 18.2551 47.2068 20.5589 49.2941 23.5603ZM8.32187 41.7733C7.63197 41.7724 6.97062 41.4979 6.48279 41.01C5.99496 40.5222 5.72046 39.8608 5.71946 39.1709V33.9661C5.72046 33.2762 5.99496 32.6149 6.48279 32.1271C6.97062 31.6392 7.63197 31.3647 8.32187 31.3637H11.0751C10.9782 32.2278 10.9296 33.0966 10.9293 33.9661V39.1709C10.9296 40.0404 10.9782 40.9093 11.0751 41.7733H8.32187ZM16.1291 39.1709V36.5685H34.3485C37.6439 36.5624 40.9013 35.8636 43.9092 34.5173C46.9171 33.171 49.6084 31.2073 51.8085 28.7538C52.3142 30.4445 52.5705 32.2001 52.5691 33.9649V39.1697C52.5719 41.8708 51.9705 44.5383 50.809 46.9769H42.1557L39.8651 44.6913C38.4007 46.1554 36.4148 46.9779 34.3441 46.9779C32.2733 46.9779 30.2874 46.1554 28.8231 44.6913L25.1432 48.3711C27.3581 50.5859 30.2975 51.9276 33.4219 52.1497C36.5463 52.3719 39.6459 51.4597 42.1519 49.5806V52.1792H47.0801C44.5189 54.6883 41.2738 56.3853 37.7519 57.0575C34.23 57.7296 30.5881 57.347 27.2828 55.9577C23.9774 54.5683 21.1559 52.234 19.1719 49.2475C17.1879 46.2609 16.1298 42.7551 16.1303 39.1697L16.1291 39.1709Z" fill="#FF6875"/>
</svg>
