<svg width="18" height="13" viewBox="0 0 18 13" fill="none" xmlns="http://www.w3.org/2000/svg">
<path d="M17.862 1.53912C17.2121 1.79445 16.5247 1.96419 15.8211 2.04313C16.5629 1.64708 17.1176 1.01979 17.3801 0.280137C16.6863 0.650565 15.9274 0.911643 15.136 1.05211C14.6504 0.584205 14.0196 0.258718 13.3257 0.118004C12.6318 -0.0227104 11.9069 0.0278618 11.2454 0.263141C10.5838 0.49842 10.0162 0.907513 9.61646 1.43719C9.2167 1.96687 9.00326 2.59261 9.00393 3.23299C9.00134 3.47745 9.02907 3.72139 9.0866 3.96031C7.67714 3.89801 6.29815 3.5686 5.03977 2.99362C3.7814 2.41864 2.67198 1.61103 1.78404 0.623593C1.32802 1.32528 1.18678 2.15724 1.38917 2.94952C1.59156 3.74181 2.12231 4.43463 2.87299 4.88647C2.31231 4.87307 1.76344 4.7385 1.27263 4.4941V4.52919C1.27339 5.2653 1.55559 5.97873 2.07179 6.54959C2.58799 7.12044 3.30673 7.51392 4.10721 7.66387C3.80398 7.73628 3.4914 7.77204 3.1777 7.7702C2.95257 7.77389 2.72765 7.75571 2.50685 7.71598C2.73551 8.34861 3.17623 8.90195 3.76841 9.2999C4.36059 9.69785 5.07515 9.92089 5.81385 9.93833C4.56121 10.8195 3.01703 11.2979 1.42735 11.2973C1.14394 11.299 0.860691 11.2845 0.579346 11.2537C2.19879 12.1931 4.08577 12.6902 6.01227 12.6849C7.33891 12.6932 8.65416 12.4642 9.88163 12.011C11.1091 11.5579 12.2243 10.8896 13.1625 10.0452C14.1007 9.20068 14.8432 8.19679 15.3468 7.0918C15.8505 5.9868 16.1052 4.80273 16.0963 3.60835C16.0963 3.46693 16.0963 3.33082 16.0833 3.19578C16.7832 2.74561 17.386 2.18419 17.862 1.53912Z" fill="white"/>
</svg>
